<?xml version="1.0" encoding="utf-8"?>
<!-- Generator: Adobe Illustrator 23.0.1, SVG Export Plug-In . SVG Version: 6.00 Build 0)  -->
<svg version="1.1" id="Layer_1" xmlns="http://www.w3.org/2000/svg" xmlns:xlink="http://www.w3.org/1999/xlink" x="0px" y="0px"
	 viewBox="0 0 1000 1000" style="enable-background:new 0 0 1000 1000;" xml:space="preserve">
<style type="text/css">
	.st0{fill:#B42025;stroke:#802929;stroke-width:0.316;}
	.st1{fill-rule:evenodd;clip-rule:evenodd;fill:url(#SVGID_1_);stroke:#333232;stroke-width:0.416;}
</style>
<g>
	<g>
		<path class="st0" d="M568.5,417.3l-1.6,43.4l-1.4,103.9c0,13.8-1.3,25.2-3.8,34.2c-2.6,9-6.5,16.6-12,22.8
			c-5.4,6.2-12.3,10.8-20.8,13.8s-18.7,4.5-30.5,4.5c-9.1,0-17.3-0.9-24.6-2.7l2.1-18.8c6.7,2.8,13.7,4.3,20.9,4.3
			c8.1,0,15.2-1,21.2-3.1c6.1-2.2,11-5.4,14.5-9.9c3.7-4.4,6.3-9.9,7.8-16.5c1.6-6.5,2.4-15.1,2.4-25.6l-1.2-150.2h26.8
			 M635.5,584.8h-25.6l2-58.8c0-24.8-1.6-45.7-4.9-62.4l28.2-3.5l-1.7,65.9C633.5,545.6,634.2,565.2,635.5,584.8 M641.7,423.9
			c0,4.3-1.6,8.4-4.7,11.5c-3.1,3.2-7.5,4.8-13.1,4.8c-4.8,0-8.6-1.4-11.3-4.1c-2.6-2.8-4-6.2-4-10.2c0-4.3,1.6-8,4.8-11.2
			c3.2-3.2,7.6-4.8,13.3-4.8c4.6,0,8.2,1.4,10.9,4.3C640.3,416.8,641.7,420.1,641.7,423.9 M793.1,584.7h-25.7l3.1-73.9
			c0-13.2-3-22.2-8.9-27c-5.8-4.9-14.2-7.3-25.1-7.3c-13.4,0-25.7,4.4-37,13.3l0.6,95h-25.7l2.4-63.3c0-20.1-2.1-39.5-6.2-58.4
			l24.9-3.2l2.7,15.7h1.1c13.9-11.5,28.9-17.2,44.8-17.2c15.6,0,27.7,3.2,36.3,9.5c8.6,6.3,12.9,17.5,12.9,33.6l-0.6,19.3
			L793.1,584.7 M855.3,459.8c-1.6,26.6-2.4,53.3-2.4,80c0.1,9.4,0.3,18.9,0.7,28.3l0.9,23.8c0,27.7-11.6,44.5-34.7,50.4l-7-9.8
			c8.4-6.4,13.6-13.3,15.5-20.6c2.9-10.5,4.4-32.8,4.4-66.9c0-36.6-1.9-64-5.6-82.1L855.3,459.8 M861.4,423.9
			c0,4.3-1.6,8.4-4.7,11.5c-3.1,3.2-7.5,4.8-13.1,4.8c-4.8,0-8.6-1.4-11.3-4.1c-2.6-2.8-4-6.2-4-10.2c0-4.3,1.6-8,4.8-11.2
			c3.2-3.2,7.6-4.8,13.3-4.8c4.6,0,8.2,1.4,10.9,4.3C860.1,416.9,861.4,420.1,861.4,423.9 M999.2,584.8l-22.2,0.8
			c-1.1-4.2-1.7-8.2-1.7-12h-1.4c-11.6,9.6-27.3,14.4-47.3,14.4c-10.8,0-20.1-2.9-28-8.6c-7.8-5.8-11.7-14.1-11.7-24.7
			c0-13.2,6.1-23.8,18.4-31.8c12.2-8.1,35-12.3,68.2-12.7c0.3-2.1,0.4-4.4,0.4-7.1c0-10.6-3.1-17.6-9.3-21.1
			c-6.1-3.5-15.4-5.3-28-5.3c-14.8,0-29.3,1.7-43.6,5l2.4-17.8c14.1-3.7,30.4-5.5,48.7-5.5c16.8,0,29.7,3.2,38.8,9.5
			c9.1,6.3,13.7,17,13.7,32.2l-0.7,22l-0.6,21.1C995.3,558.8,996.6,572.7,999.2,584.8 M974.2,560l-0.7-35.1
			c-17.7,0-31.2,1.2-40.4,3.6c-15.4,4.3-23.2,12.4-23.2,24.6c0,11.7,9,17.5,27.1,17.5C952.5,570.5,964.9,567,974.2,560"/>
	</g>
	
		<radialGradient id="SVGID_1_" cx="539.7067" cy="-253.4655" r="552.2933" gradientTransform="matrix(0.4158 0 0 -0.3929 6.1101 400.4058)" gradientUnits="userSpaceOnUse">
		<stop  offset="0" style="stop-color:#575858"/>
		<stop  offset="1" style="stop-color:#302F2F"/>
	</radialGradient>
	<path class="st1" d="M457.3,283c0,0-88.6,42.3-160.7,51.7c-72.1,9.3-209.7,18.7-237,12.1c-27.3-6.6-46.9-14.3-46.9-14.3l5.7,19.3
		L0.8,367.2l3.1,5.5l7.2,0.5l22.1,2.7l3.1,9.9l12.4,1.2l6.2,21c0,0,26.3,2.2,34,2.2s23.2-1.1,23.2-1.1l0.5,8.2l5.7,1.1v9.4l-12.4,11
		l3.1,0.5v3.7c0,0-27.8,2.2-39.2,0.6C58.5,442,56.4,442,56.4,442l-1,1.1l-0.5,4.9h2.6l1,21.5l57.2-2.2l-4.6,83.6l-48.4-2.7
		l-0.5-19.8h10.8l1-7.7l9.8-2.2l1.6-2.2l-36.6-8.8l-27.8,8.2l4.6,3.9h4.6l0.5,6.6l9.8,0.5V546l-10.8,2.7l2.1,4.4l2.6,1.7v14.9H41
		v68.7L30.1,640l1.6,19.8l6.7,1.2l-1,45.1l29.4,0.5l-6.2-44.5l44.3-1.1l-3.1,24.2l-4.1,17.1l44.8,0.5l0.5-44l30.9-2.7l-1.5,28.1
		l-1,16.5h26.3l-1-45.1l3.6,0.6l1-21.5H197l-1.5-8.8l-2.6-25.3l1-29.1h5.7v-17.8l-7.2,0.5l1-20.8l8.4-0.8l0.4-6.7l4.8-0.7l4.9-3.7
		l-29.3-6.1l-29.1,6.5l2.8,4.7l3.1-0.2l3.6-0.1l0.7,8.5l8.1-0.4l0.1,18.4l-34.9-0.8l1.2-19.7l1.1-17.9v-23.5l1-24.8l69.9-3.6
		l83.2-4.8l0.8,15.8l-3,37.9l-1.3,35.3l-30.6-0.5l-0.1-24.8l11.3-0.4l0.5-7l4.6-0.7l-0.2-1.4l4.6-0.2l2.6-3.5l-34.6-8.1l-34.5,7.4
		l2.4,4.3l3.9-0.3v1.9h4.8v7.8l10.2,0.1l-0.1,21.7h-10.2v4.9l3.6,0.4l-0.4,18.8l7.6,0.4l-0.9,74.6l-10,2.1l0.1,3.6h3.5v19.1h5.8
		l-1.5,26.1L230,716l36.6,1l-1.2-19.8l-2.7-16.5l-0.5-14.3l31.1-0.5l-0.9,22.1l-0.1,23.4l17.5,1.4l23.8-1l7.5-2.2l-4.1-12.5l-1-19.7
		l-1.9-14l29.6-1.1l-1.3,17.3l-0.1,26.9l11.9,1.1l11.7-0.2l5.7-1.8l-3.3-25.6l-1.1-19.3l5-0.5l0.1-17.3l1.4-0.3l-0.2-3.7h-5.8
		l-1.2-12.6l-0.5-54.9l4.4-0.1v-18l1.8,0.3v-3.6l-6.5-0.6l0.1-21l10.8-1l-0.6-7l4.8-0.4l-0.3-1.4l6.3-3.2l-32.1-6.5l-32.6,6.6
		l2.1,3.7l5-0.4l0.3,1.7h4.3l0.2,8.2l10.6-0.1l0.9,20.2l-37.3-0.3l-4.4-30.4l-3.5-16.1l-2.8-28.9l1.7-16.9l74.4-5.6l0.2-25.2l3.7-1
		l-0.2-3.7l-2.8-1.7c0,0-40.7,6-53.6,7.4l-6.3,0.7l-0.4-4.7l-15.4-8.1l0.2-9.4l5.3-0.2l0.4-12.9c0,0,31.5-2.1,43.3-4.9
		c11.7-2.9,28.3-5.5,28.3-5.5l7.9-21.3l15.6-4.5l1.3-3.6l35.3-9.8l4-3.3l-13.4-29.3l1.3-6.6l6.8-3.6l4.9-15L457.3,283z M287.8,394.6
		l-0.2,10.7l8,0.3l-0.5,10.1L279.5,426l-1,3l6.3,0l0,2.5l-47.8,2.3l0.3-7.1l2.2-3.5l0.1-2.2l0-4.9l1.2-3.2l0.5-2.6v-1.9l2.1-8.2
		L287.8,394.6z M187.7,403.7l-1.2,7.2l3.7,4.4l-0.2,7.7l3.5,5.4l-0.9,6.3l2.6,3.7l-48.8,1.9l-0.1-1.6l5.7-0.7l0.3-2.1l-12.4-6.7
		l-0.7-10.7l5.9-0.3l0.5-11.6L187.7,403.7z M260,568.7l29.6,1.9l-1,39.9l3.9,32.7l-31.4-1.1L260,568.7z M61.6,570.3l47.4,2.5
		l-4.1,27.5v23.1l3.3,12.9l-46.4,2.2L61.6,570.3z M365.1,570.6v68.2L335,641l-1-36l-3.3-33.5L365.1,570.6z M136.9,572.1l35,0.1
		l0.4,63.2l-32.7,0.6l-1.7-20.5l-0.1-20.3L136.9,572.1z"/>
</g>
</svg>
